HIERARCHY
ROOT RootJoint
{
    OFFSET   0.000000   0.000000   0.000000
    CHANNELS 6 Xposition Yposition Zposition Xrotation Yrotation Zrotation
    JOINT pelvis_lowerback
    {
        OFFSET   0.000000   0.093605   0.000000
        CHANNELS 3 Xrotation Yrotation Zrotation
        JOINT lowerback_torso
        {
            OFFSET   0.000000   0.100000   0.000000
            CHANNELS 3 Xrotation Yrotation Zrotation
            JOINT torso_head
            {
                OFFSET   0.000000   0.282350   0.000000
                CHANNELS 3 Xrotation Yrotation Zrotation
                End Site
                {
                    OFFSET   0.000000   0.192650   0.000000
                }
            }
            JOINT rTorso_Clavicle
            {
                OFFSET  -0.001000   0.157500   0.000000
                CHANNELS 3 Xrotation Yrotation Zrotation
                JOINT rShoulder
                {
                    OFFSET  -0.117647   0.000000   0.000000
                    CHANNELS 3 Xrotation Yrotation Zrotation
                    JOINT rElbow
                    {
                        OFFSET  -0.245000   0.000000   0.000000
                        CHANNELS 3 Xrotation Yrotation Zrotation
                        JOINT rWrist
                        {
                            OFFSET  -0.240000   0.000000   0.000000
                            CHANNELS 3 Xrotation Yrotation Zrotation
                            End Site
                            {
                                OFFSET  -0.116353  -0.002500   0.000000
                            }
                        }
                    }
                }
            }
            JOINT lTorso_Clavicle
            {
                OFFSET   0.001000   0.157500   0.000000
                CHANNELS 3 Xrotation Yrotation Zrotation
                JOINT lShoulder
                {
                    OFFSET   0.117647   0.000000   0.000000
                    CHANNELS 3 Xrotation Yrotation Zrotation
                    JOINT lElbow
                    {
                        OFFSET   0.245000   0.000000   0.000000
                        CHANNELS 3 Xrotation Yrotation Zrotation
                        JOINT lWrist
                        {
                            OFFSET   0.240000   0.000000   0.000000
                            CHANNELS 3 Xrotation Yrotation Zrotation
                            End Site
                            {
                                OFFSET   0.116353  -0.002500   0.000000
                            }
                        }
                    }
                }
            }
        }
    }
    JOINT rHip
    {
        OFFSET  -0.100000  -0.051395   0.000000
        CHANNELS 3 Xrotation Yrotation Zrotation
        JOINT rKnee
        {
            OFFSET   0.000000  -0.410000   0.000000
            CHANNELS 3 Xrotation Yrotation Zrotation
            JOINT rAnkle
            {
                OFFSET   0.000000  -0.390000   0.000000
                CHANNELS 3 Xrotation Yrotation Zrotation
                JOINT rToeJoint
                {
                    OFFSET   0.000000  -0.050000   0.130000
                    CHANNELS 3 Xrotation Yrotation Zrotation
                    End Site
                    {
                        OFFSET  -0.010000   0.002000   0.060000
                    }
                }
            }
        }
    }
    JOINT lHip
    {
        OFFSET   0.100000  -0.051395   0.000000
        CHANNELS 3 Xrotation Yrotation Zrotation
        JOINT lKnee
        {
            OFFSET   0.000000  -0.410000   0.000000
            CHANNELS 3 Xrotation Yrotation Zrotation
            JOINT lAnkle
            {
                OFFSET   0.000000  -0.390000   0.000000
                CHANNELS 3 Xrotation Yrotation Zrotation
                JOINT lToeJoint
                {
                    OFFSET   0.000000  -0.050000   0.130000
                    CHANNELS 3 Xrotation Yrotation Zrotation
                    End Site
                    {
                        OFFSET   0.010000   0.002000   0.060000
                    }
                }
            }
        }
    }
}
MOTION
Frames: 8
Frame Time:   0.008333
 -2.098101   1.018749   3.563718   5.269506 -19.579976  -2.028351   6.496788  -1.757052   4.133852  -7.346054  -0.997057   1.750950  -2.639600  -0.931644   1.155069  -0.203834 -16.768765  13.929017 -22.532808 -20.302359  29.866661   0.013860  23.968118  -0.017248  -2.394178   1.140581 -25.365592   1.702977  17.455469 -13.144415 -27.261579  21.210302 -30.658553   0.005858 -22.911245   0.015267  -5.430077  -2.945996  31.993392 -18.933034   0.134557   0.472233  35.950300  -0.004479  -0.006482   9.142074   0.453290   6.579350  -8.894408   0.000167   0.012088  -5.504254  -0.868576   7.740534  16.255886   0.000002  -0.028944  42.149547   2.055522  -4.680780 -25.378780   0.020991   0.035746
 -2.098968   1.022767   3.565337   5.193606 -19.403805  -1.795899   6.323246  -1.835263   3.743937  -7.172241  -1.145325   1.782180  -2.589208  -0.928219   1.158177  -0.049700 -17.147288  14.104456 -23.029047 -20.775589  29.180250   0.013587  23.663335  -0.016285  -2.645504   0.803850 -25.472594   1.687987  17.673877 -13.118066 -27.939880  21.537216 -30.036542   0.005829 -22.727479   0.013774  -5.697702  -2.789968  31.987714 -18.777391   0.200862   0.072190  35.655658  -0.003981  -0.005363   8.966293   0.407051   6.642011  -8.326553   0.000782   0.009917  -5.339837  -0.818837   7.427172  15.897277  -0.000114  -0.023674  39.892314   2.121993  -4.625366 -22.762741   0.023403   0.028180
 -2.099778   1.026014   3.566983   5.079910 -19.268045  -1.541475   6.162272  -1.885956   3.332992  -6.992757  -1.267544   1.783091  -2.538437  -0.924674   1.156563   0.066319 -17.482184  14.198396 -23.538862 -21.168044  28.476682   0.013037  23.404651  -0.015061  -2.851285   0.582902 -25.674698   1.662102  17.878755 -13.007286 -28.615441  21.799431 -29.374654   0.005691 -22.577470   0.012265  -5.909503  -2.733218  32.065619 -18.565653   0.276674  -0.346592  35.424403  -0.003455  -0.004367   8.804003   0.361408   6.699198  -7.811043   0.001116   0.007971  -5.197939  -0.767719   7.051003  15.669751  -0.000227  -0.019187  37.751426   2.182237  -4.570200 -20.599878   0.023851   0.021339
 -2.100571   1.028539   3.568623   4.959848 -19.161412  -1.300448   6.000891  -1.916994   2.940648  -6.824008  -1.364543   1.774518  -2.492082  -0.921306   1.152415   0.157319 -17.777078  14.226815 -24.043616 -21.497293  27.779566   0.012297  23.178228  -0.013734  -3.012729   0.453541 -25.921165   1.633214  18.070836 -12.845181 -29.268920  22.015602 -28.710373   0.005464 -22.448505   0.010850  -6.073826  -2.744136  32.197184 -18.326225   0.346341  -0.733393  35.222202  -0.002956  -0.003532   8.653773   0.318568   6.752365  -7.333836   0.001238   0.006331  -5.080821  -0.720462   6.673123  15.472581  -0.000326  -0.015515  35.754209   2.236470  -4.516567 -18.620648   0.023391   0.015486
 -2.101351   1.030366   3.570234   4.840607 -19.075837  -1.077406   5.841966  -1.932537   2.570344  -6.669202  -1.441176   1.762967  -2.451007  -0.918149   1.147934   0.228596 -18.037198  14.211848 -24.535817 -21.775391  27.101711   0.011425  22.977958  -0.012391  -3.140065   0.390753 -26.187619   1.602528  18.249694 -12.654741 -29.894556  22.195779 -28.059879   0.005166 -22.335545   0.009554  -6.205023  -2.798306  32.359434 -18.071368   0.407605  -1.083101  35.042857  -0.002503  -0.002846   8.514175   0.278612   6.801974  -6.894141   0.001223   0.004983  -4.990293  -0.678547   6.305164  15.287006  -0.000416  -0.012532  33.890264   2.285484  -4.464665 -16.805893   0.022351   0.010644
 -2.102120   1.031510   3.571805   4.723893 -19.006518  -0.872220   5.688171  -1.935502   2.221682  -6.527607  -1.501149   1.750101  -2.414419  -0.915172   1.143615   0.284080 -18.267109  14.169768 -25.010585 -22.011877  26.451524   0.010479  22.799270  -0.011085  -3.241397   0.375798 -26.459375   1.570888  18.415606 -12.451023 -30.489405  22.347312 -27.432676   0.004821 -22.235215   0.008387  -6.312705  -2.879848  32.537370 -17.807411   0.460847  -1.397988  34.883458  -0.002101  -0.002287   8.384331   0.241395   6.848293  -6.489620   0.001128   0.003889  -4.925171  -0.641660   5.950022  15.108682  -0.000494  -0.010114  32.150396   2.329810  -4.414697 -15.142623   0.020968   0.006741
 -2.102878   1.031980   3.573334   4.610155 -18.950588  -0.683935   5.541003  -1.928159   1.893739  -6.397970  -1.547245   1.736452  -2.381459  -0.912347   1.139518   0.326930 -18.470844  14.111739 -25.464901 -22.214346  25.833812   0.009511  22.638621  -0.009854  -3.322844   0.394826 -26.727309   1.539145  18.569467 -12.243976 -31.052074  22.476051 -26.834161   0.004450 -22.145017   0.007345  -6.403525  -2.977931  32.721554 -17.538600   0.506860  -1.681427  34.741739  -0.001751  -0.001833   8.263509   0.206735   6.891543  -6.117681   0.000992   0.003008  -4.882983  -0.609133   5.608702  14.936492  -0.000559  -0.008156  30.526266   2.369911  -4.366803 -13.618471   0.019405   0.003663
 -2.103370   1.031573   3.574313   4.479951 -18.808144  -0.598552   5.589518  -1.968119   1.716549  -6.369119  -1.629218   1.741850  -2.440813  -0.899158   1.160939   0.312812 -18.610557  14.013095 -26.142126 -22.358039  25.044342   0.004506  23.018450  -0.005165  -3.489946   0.049936 -26.897743   1.412511  18.602705 -12.065614 -31.618827  22.557352 -26.056839   0.001149 -22.471394   0.003843  -6.632371  -2.692900  32.921082 -17.419452   0.505413  -1.886249  34.995248  -0.001214  -0.001339   7.895264   0.115866   6.943325  -5.618322   0.001017   0.002272  -5.187835  -0.688293   5.353330  15.683451   0.000306  -0.006138  28.303531   2.428905  -4.119268 -12.545327   0.015554   0.001636
